<?xml version="1.0" encoding="UTF-8" standalone="no"?>
<!-- Created with Inkscape (http://www.inkscape.org/) -->

<svg
   width="420mm"
   height="297mm"
   viewBox="0 0 420 297"
   version="1.1"
   id="svg1"
   sodipodi:docname="lasercut.svg"
   inkscape:version="1.4.2 (ebf0e940, 2025-05-08)"
   xmlns:inkscape="http://www.inkscape.org/namespaces/inkscape"
   xmlns:sodipodi="http://sodipodi.sourceforge.net/DTD/sodipodi-0.dtd"
   xmlns="http://www.w3.org/2000/svg"
   xmlns:svg="http://www.w3.org/2000/svg">
  <sodipodi:namedview
     id="namedview1"
     pagecolor="#c8b586"
     bordercolor="#000000"
     borderopacity="0.25"
     inkscape:showpageshadow="2"
     inkscape:pageopacity="0.0"
     inkscape:pagecheckerboard="false"
     inkscape:deskcolor="#d1d1d1"
     inkscape:document-units="mm"
     inkscape:zoom="0.50539074"
     inkscape:cx="781.57348"
     inkscape:cy="447.17875"
     inkscape:window-width="1512"
     inkscape:window-height="945"
     inkscape:window-x="0"
     inkscape:window-y="37"
     inkscape:window-maximized="0"
     inkscape:current-layer="layer3"
     showgrid="true">
    <inkscape:grid
       id="grid9"
       units="mm"
       originx="0"
       originy="0"
       spacingx="0.99999998"
       spacingy="1"
       empcolor="#0099e5"
       empopacity="0.30196078"
       color="#0099e5"
       opacity="0.14901961"
       empspacing="5"
       enabled="true"
       visible="true" />
  </sodipodi:namedview>
  <defs
     id="defs1">
    <linearGradient
       id="swatch6"
       inkscape:swatch="solid">
      <stop
         style="stop-color:#000000;stop-opacity:1;"
         offset="0"
         id="stop7" />
    </linearGradient>
  </defs>
  <g
     inkscape:groupmode="layer"
     id="layer1"
     inkscape:label="Front">
    <path
       id="rect7"
       style="fill:none;fill-opacity:1;stroke:#000000;stroke-width:0.1;stroke-dasharray:none;stroke-opacity:1"
       d="M 15.000118 4.9965942 L 15.000118 8.0966634 L 4.9965942 8.0966634 L 4.9965942 15.000118 L 8.0000285 15.000118 L 8.0000285 25.000024 L 4.9965942 25.000024 L 4.9965942 34.999931 L 8.0000285 34.999931 L 8.0000285 44.999837 L 4.9965942 44.999837 L 4.9965942 54.999744 L 8.0000285 54.999744 L 8.0000285 65.000167 L 4.9965942 65.000167 L 4.9965942 75.000073 L 8.0000285 75.000073 L 8.0000285 84.99998 L 4.9965942 84.99998 L 4.9965942 94.999886 L 8.0000285 94.999886 L 8.0000285 104.99979 L 4.9965942 104.99979 L 4.9965942 115.00022 L 8.0000285 115.00022 L 8.0000285 125.00012 L 4.9965942 125.00012 L 4.9965942 135.00003 L 8.0000285 135.00003 L 8.0000285 144.99993 L 4.9965942 144.99993 L 4.9965942 154.99984 L 8.0000285 154.99984 L 8.0000285 164.99975 L 4.9965942 164.99975 L 4.9965942 175.00017 L 8.0000285 175.00017 L 8.0000285 185.00008 L 4.9965942 185.00008 L 4.9965942 194.99998 L 8.0000285 194.99998 L 8.0000285 204.99989 L 4.9965942 204.99989 L 4.9965942 214.9998 L 8.0000285 214.9998 L 8.0000285 225.00022 L 4.9965942 225.00022 L 4.9965942 235.00013 L 8.0000285 235.00013 L 8.0000285 244.9034 L 15.000118 244.9034 L 15.000118 242.00022 L 25.000024 242.00022 L 25.000024 244.9034 L 34.999931 244.9034 L 34.999931 242.00022 L 44.999837 242.00022 L 44.999837 244.9034 L 54.999744 244.9034 L 54.999744 242.00022 L 65.000167 242.00022 L 65.000167 244.9034 L 75.000073 244.9034 L 75.000073 242.00022 L 84.99998 242.00022 L 84.99998 244.9034 L 94.999886 244.9034 L 94.999886 242.00022 L 104.99979 242.00022 L 104.99979 244.9034 L 115.00022 244.9034 L 115.00022 242.00022 L 125.00012 242.00022 L 125.00012 244.9034 L 135.00003 244.9034 L 135.00003 242.00022 L 144.99993 242.00022 L 144.99993 244.9034 L 154.99984 244.9034 L 154.99984 242.00022 L 164.99975 242.00022 L 164.99975 244.9034 L 174.90354 244.9034 L 174.90354 241.90358 L 184.90344 241.90358 L 184.90344 235.00013 L 181.99974 235.00013 L 181.99974 225.00022 L 184.90344 225.00022 L 184.90344 214.9998 L 181.99974 214.9998 L 181.99974 204.99989 L 184.90344 204.99989 L 184.90344 194.99998 L 181.99974 194.99998 L 181.99974 185.00008 L 184.90344 185.00008 L 184.90344 175.00017 L 181.99974 175.00017 L 181.99974 164.99975 L 184.90344 164.99975 L 184.90344 154.99984 L 181.99974 154.99984 L 181.99974 144.99993 L 184.90344 144.99993 L 184.90344 135.00003 L 181.99974 135.00003 L 181.99974 125.00012 L 184.90344 125.00012 L 184.90344 115.00022 L 181.99974 115.00022 L 181.99974 104.99979 L 184.90344 104.99979 L 184.90344 94.999886 L 181.99974 94.999886 L 181.99974 84.99998 L 184.90344 84.99998 L 184.90344 75.000073 L 181.99974 75.000073 L 181.99974 65.000167 L 184.90344 65.000167 L 184.90344 54.999744 L 181.99974 54.999744 L 181.99974 44.999837 L 184.90344 44.999837 L 184.90344 34.999931 L 181.99974 34.999931 L 181.99974 25.000024 L 184.90344 25.000024 L 184.90344 15.000118 L 181.99974 15.000118 L 181.99974 4.9965942 L 174.90354 4.9965942 L 174.90354 8.0000285 L 164.90363 8.0000285 L 164.90363 4.9965942 L 154.99984 4.9965942 L 154.99984 8.0966634 L 144.99993 8.0966634 L 144.99993 4.9965942 L 135.00003 4.9965942 L 135.00003 8.0000285 L 125.00012 8.0000285 L 125.00012 4.9965942 L 115.00022 4.9965942 L 115.00022 8.0966634 L 104.99979 8.0966634 L 104.99979 4.9965942 L 94.999886 4.9965942 L 94.999886 8.0966634 L 84.99998 8.0966634 L 84.99998 4.9965942 L 75.000073 4.9965942 L 75.000073 8.0000285 L 65.000167 8.0000285 L 65.000167 4.9965942 L 54.999744 4.9965942 L 54.999744 8.0000285 L 44.999837 8.0000285 L 44.999837 4.9965942 L 34.999931 4.9965942 L 34.999931 8.0966634 L 25.000024 8.0966634 L 25.000024 4.9965942 L 15.000118 4.9965942 z " />
  </g>
  <g
     inkscape:groupmode="layer"
     id="layer2"
     inkscape:label="Back">
    <path
       id="path257"
       style="fill:none;fill-opacity:1;stroke:#000000;stroke-width:0.1;stroke-dasharray:none;stroke-opacity:1"
       d="m 245.11707,4.9968395 v 3.1000692 h -10.00353 v 6.9034543 h 3.00344 v 9.999906 h -3.00344 v 9.999907 h 3.00344 v 9.999906 h -3.00344 v 9.999907 h 3.00344 v 10.000423 h -3.00344 v 9.999906 h 3.00344 v 9.999907 h -3.00344 v 9.999906 h 3.00344 v 9.999909 h -3.00344 v 10.00043 h 3.00344 v 9.9999 h -3.00344 v 9.99991 h 3.00344 v 9.9999 h -3.00344 v 9.99991 h 3.00344 V 165 h -3.00344 v 10.00042 h 3.00344 v 9.99991 h -3.00344 v 9.9999 h 3.00344 v 9.99991 h -3.00344 v 9.99991 h 3.00344 v 10.00042 h -3.00344 v 9.99991 h 3.00344 v 9.90327 h 7.00009 v -2.90318 h 9.9999 v 2.90318 h 9.99991 v -2.90318 h 9.99991 v 2.90318 h 9.9999 v -2.90318 h 10.00043 v 2.90318 h 9.9999 v -2.90318 h 9.99991 v 2.90318 h 9.99991 v -2.90318 h 9.9999 v 2.90318 h 10.00043 v -2.90318 h 9.9999 v 2.90318 h 9.99991 v -2.90318 h 9.9999 v 2.90318 h 9.99991 v -2.90318 h 9.99991 v 2.90318 h 9.90379 v -2.99982 h 9.9999 v -6.90345 h -2.9037 v -9.99991 h 2.9037 v -10.00042 h -2.9037 v -9.99991 h 2.9037 v -9.99991 h -2.9037 v -9.9999 h 2.9037 v -9.99991 h -2.9037 V 165 h 2.9037 v -9.99991 h -2.9037 v -9.99991 h 2.9037 v -9.9999 h -2.9037 v -9.99991 h 2.9037 v -9.9999 h -2.9037 v -10.00043 h 2.9037 v -9.999909 h -2.9037 v -9.999906 h 2.9037 v -9.999907 h -2.9037 v -9.999906 h 2.9037 V 54.999989 h -2.9037 v -9.999907 h 2.9037 v -9.999906 h -2.9037 v -9.999907 h 2.9037 v -9.999906 h -2.9037 V 4.9968395 h -7.0962 v 3.0034343 h -9.99991 V 4.9968395 h -9.90379 v 3.1000692 h -9.99991 V 4.9968395 h -9.9999 v 3.0034343 h -9.99991 V 4.9968395 h -9.9999 V 8.0969087 H 335.11674 V 4.9968395 h -9.9999 v 3.1000692 h -9.99991 V 4.9968395 h -9.99991 v 3.0034343 h -9.9999 V 4.9968395 h -10.00043 v 3.0034343 h -9.9999 V 4.9968395 h -9.99991 v 3.1000692 h -9.99991 V 4.9968395 Z" />
  </g>
  <g
     inkscape:groupmode="layer"
     id="layer3"
     inkscape:label="Sides">
    <path
       id="rect257"
       style="fill:none;fill-opacity:1;stroke:#000000;stroke-width:0.1;stroke-dasharray:none;stroke-opacity:1"
       d="M 189.99977 5.0002116 L 189.99977 15.000118 L 193.00011 15.000118 L 193.00011 25.000024 L 189.99977 25.000024 L 189.99977 34.999931 L 193.00011 34.999931 L 193.00011 44.999837 L 189.99977 44.999837 L 189.99977 54.999744 L 193.00011 54.999744 L 193.00011 65.000167 L 189.99977 65.000167 L 189.99977 75.000073 L 193.00011 75.000073 L 193.00011 84.99998 L 189.99977 84.99998 L 189.99977 94.999886 L 193.00011 94.999886 L 193.00011 104.99979 L 189.99977 104.99979 L 189.99977 115.00022 L 193.00011 115.00022 L 193.00011 125.00012 L 189.99977 125.00012 L 189.99977 135.00003 L 193.00011 135.00003 L 193.00011 144.99993 L 189.99977 144.99993 L 189.99977 154.99984 L 193.00011 154.99984 L 193.00011 164.99975 L 189.99977 164.99975 L 189.99977 175.00017 L 193.00011 175.00017 L 193.00011 185.00008 L 189.99977 185.00008 L 189.99977 194.99998 L 193.00011 194.99998 L 193.00011 204.99989 L 189.99977 204.99989 L 189.99977 214.9998 L 193.00011 214.9998 L 193.00011 225.00022 L 189.99977 225.00022 L 189.99977 235.00013 L 193.00011 235.00013 L 193.00011 242.00022 L 203.00001 242.00022 L 203.00001 235.00013 L 205.99983 235.00013 L 205.99983 225.00022 L 203.00001 225.00022 L 203.00001 214.9998 L 205.99983 214.9998 L 205.99983 204.99989 L 203.00001 204.99989 L 203.00001 194.99998 L 205.99983 194.99998 L 205.99983 185.00008 L 203.00001 185.00008 L 203.00001 175.00017 L 205.99983 175.00017 L 205.99983 164.99975 L 203.00001 164.99975 L 203.00001 154.99984 L 205.99983 154.99984 L 205.99983 144.99993 L 203.00001 144.99993 L 203.00001 135.00003 L 205.99983 135.00003 L 205.99983 125.00012 L 203.00001 125.00012 L 203.00001 115.00022 L 205.99983 115.00022 L 205.99983 104.99979 L 203.00001 104.99979 L 203.00001 94.999886 L 205.99983 94.999886 L 205.99983 84.99998 L 203.00001 84.99998 L 203.00001 75.000073 L 205.99983 75.000073 L 205.99983 65.000167 L 203.00001 65.000167 L 203.00001 54.999744 L 205.99983 54.999744 L 205.99983 44.999837 L 203.00001 44.999837 L 203.00001 34.999931 L 205.99983 34.999931 L 205.99983 25.000024 L 203.00001 25.000024 L 203.00001 15.000118 L 205.99983 15.000118 L 205.99983 5.0002116 L 189.99977 5.0002116 z " />
    <path
       id="rect281"
       style="fill:none;fill-opacity:1;stroke:#000000;stroke-width:0.1;stroke-dasharray:none;stroke-opacity:1"
       d="M 216.9418 7.9499023 L 216.9418 14.970662 L 213.95025 14.970662 L 213.95025 25.005709 L 216.89167 25.005709 L 216.89167 35.006132 L 213.95025 35.006132 L 213.95025 44.999837 L 216.9418 44.999837 L 216.9418 54.999744 L 213.95025 54.999744 L 213.95025 65.000167 L 216.9418 65.000167 L 216.9418 75.000073 L 213.95025 75.000073 L 213.95025 84.99998 L 217.00019 84.99998 L 217.00019 94.999886 L 213.95025 94.999886 L 213.95025 104.99979 L 216.9418 104.99979 L 216.9418 115.00022 L 213.95025 115.00022 L 213.95025 125.00012 L 216.9418 125.00012 L 216.9418 135.00003 L 213.95025 135.00003 L 213.95025 144.99993 L 216.9418 144.99993 L 216.9418 154.99984 L 213.95025 154.99984 L 213.95025 164.99975 L 216.9418 164.99975 L 216.9418 175.00017 L 213.95025 175.00017 L 213.95025 185.00008 L 216.9418 185.00008 L 216.9418 194.99998 L 213.95025 194.99998 L 213.95025 204.99989 L 216.9418 204.99989 L 216.9418 214.9998 L 213.95025 214.9998 L 213.95025 225.00022 L 216.9418 225.00022 L 216.9418 235.00013 L 213.95025 235.00013 L 213.95025 244.94991 L 229.94979 244.94991 L 229.94979 235.00013 L 227.0001 235.00013 L 227.0001 225.00022 L 229.94979 225.00022 L 229.94979 214.9998 L 227.0001 214.9998 L 227.0001 204.99989 L 229.94979 204.99989 L 229.94979 194.99998 L 227.0001 194.99998 L 227.0001 185.00008 L 229.94979 185.00008 L 229.94979 175.00017 L 227.0001 175.00017 L 227.0001 164.99975 L 229.94979 164.99975 L 229.94979 154.99984 L 227.0001 154.99984 L 227.0001 144.99993 L 229.94979 144.99993 L 229.94979 135.00003 L 227.0001 135.00003 L 227.0001 125.00012 L 229.94979 125.00012 L 229.94979 115.00022 L 227.0001 115.00022 L 227.0001 104.99979 L 229.94979 104.99979 L 229.94979 94.999886 L 227.0001 94.999886 L 227.0001 84.99998 L 229.94979 84.99998 L 229.94979 75.000073 L 227.0001 75.000073 L 227.0001 65.000167 L 229.94979 65.000167 L 229.94979 54.999744 L 227.0001 54.999744 L 227.0001 44.999837 L 229.94979 44.999837 L 229.94979 35.006132 L 226.94997 35.006132 L 226.94997 25.005709 L 229.94979 25.005709 L 229.94979 14.970662 L 227.0001 14.970662 L 227.0001 7.9499023 L 216.9418 7.9499023 z " />
  </g>
</svg>
